<svg width="13" height="13" viewBox="0 0 13 13" fill="none" xmlns="http://www.w3.org/2000/svg">
<path d="M6.5 0L7.67574 0.968575L9.14379 0.561954L9.82393 1.92501L11.3304 2.15065L11.3974 3.6725L12.6819 4.49139L12.124 5.90889L12.9644 7.17943L11.8782 8.24749L12.1292 9.75L10.7025 10.2839L10.3206 11.7586L8.8001 11.6661L7.85143 12.858L6.5 12.155L5.14857 12.858L4.1999 11.6661L2.6794 11.7586L2.29752 10.2839L0.870835 9.75L1.12178 8.24749L0.0356078 7.17943L0.875978 5.90889L0.318133 4.49139L1.60263 3.6725L1.66956 2.15065L3.17607 1.92501L3.85621 0.561954L5.32426 0.968575L6.5 0Z" fill="#266EEA"/>
<path d="M6.06987 7.31928L4.34928 5.57139L3.05884 6.88231L6.06987 9.94113L9.94119 5.13441L8.65075 3.82349L6.06987 7.31928Z" fill="white"/>
</svg>
